HIERARCHY
ROOT Hips
{
	OFFSET -3.958830 18.904000 13.208200
	CHANNELS 6 Xposition Yposition Zposition Zrotation Yrotation Xrotation 
	JOINT LHipJoint
	{
		OFFSET 0.000000 0.000000 0.000000
		CHANNELS 3 Zrotation Yrotation Xrotation
		JOINT LeftUpLeg
		{
			OFFSET 1.800000 -1.400000 0.085000
			CHANNELS 3 Zrotation Yrotation Xrotation
			JOINT LeftLeg
			{
				OFFSET 2.215000 -6.000000 0.000000
				CHANNELS 3 Zrotation Yrotation Xrotation
				JOINT LeftFoot
				{
					OFFSET 2.500000 -6.900000 0.000000
					CHANNELS 3 Zrotation Yrotation Xrotation
					JOINT LeftToeBase
					{
						OFFSET 0.200000 -0.500000 1.950000
						CHANNELS 3 Zrotation Yrotation Xrotation
						End Site
						{
							OFFSET 0.000000 0.000000 0.000000
						}
					}
				}
			}
		}
	}
	JOINT RHipJoint
	{
		OFFSET 0.000000 0.000000 0.000000
		CHANNELS 3 Zrotation Yrotation Xrotation
		JOINT RightUpLeg
		{
			OFFSET -1.800000 -1.400000 0.085000
			CHANNELS 3 Zrotation Yrotation Xrotation
			JOINT RightLeg
			{
				OFFSET -2.215000 -6.000000 0.000000
				CHANNELS 3 Zrotation Yrotation Xrotation
				JOINT RightFoot
				{
					OFFSET -2.500000 -6.900000 0.000000
					CHANNELS 3 Zrotation Yrotation Xrotation
					JOINT RightToeBase
					{
						OFFSET -0.200000 -0.500000 1.950000
						CHANNELS 3 Zrotation Yrotation Xrotation
						End Site
						{
							OFFSET 0.000000 0.000000 0.000000
						}
					}
				}
			}
		}
	}
	JOINT LowerBack
	{
		OFFSET 0.000000 0.000000 0.000000
		CHANNELS 3 Zrotation Yrotation Xrotation
		JOINT Spine
		{
			OFFSET -0.087000 1.940000 -0.288900
			CHANNELS 3 Zrotation Yrotation Xrotation
			JOINT Spine1
			{
				OFFSET 0.000000 1.950000 0.060000
				CHANNELS 3 Zrotation Yrotation Xrotation
				JOINT Neck
				{
					OFFSET 0.000000 0.000000 0.000000
					CHANNELS 3 Zrotation Yrotation Xrotation
					JOINT Neck1
					{
						OFFSET 0.000000 1.600000 0.340000
						CHANNELS 3 Zrotation Yrotation Xrotation
						JOINT Head
						{
							OFFSET 0.000000 1.667000 -0.240000
							CHANNELS 3 Zrotation Yrotation Xrotation
							End Site
							{
								OFFSET 0.000000 0.000000 0.000000
							}
						}
					}
				}
				JOINT LeftShoulder
				{
					OFFSET 0.000000 0.000000 0.000000
					CHANNELS 3 Zrotation Yrotation Xrotation
					JOINT LeftArm
					{
						OFFSET 2.700000 1.550000 -0.730000
						CHANNELS 3 Zrotation Yrotation Xrotation
						JOINT LeftForeArm
						{
							OFFSET 5.450000 0.000000 0.000000
							CHANNELS 3 Zrotation Yrotation Xrotation
							JOINT LeftHand
							{
								OFFSET 3.450000 0.000000 0.000000
								CHANNELS 3 Zrotation Yrotation Xrotation
								JOINT LeftHandIndex1
								{
									OFFSET 0.750000 0.000000 0.000000
									CHANNELS 3 Zrotation Yrotation Xrotation
									End Site
									{
										OFFSET 0.000000 0.000000 0.000000
									}
								}
							}
						}
					}
				}
				JOINT RightShoulder
				{
					OFFSET 0.000000 0.000000 0.000000
					CHANNELS 3 Zrotation Yrotation Xrotation
					JOINT RightArm
					{
						OFFSET -2.700000 1.550000 -0.730000
						CHANNELS 3 Zrotation Yrotation Xrotation
						JOINT RightForeArm
						{
							OFFSET -5.450000 0.000000 0.000000
							CHANNELS 3 Zrotation Yrotation Xrotation
							JOINT RightHand
							{
								OFFSET -3.450000 0.000000 0.000000
								CHANNELS 3 Zrotation Yrotation Xrotation
								JOINT RightHandIndex1
								{
									OFFSET -0.750000 0.000000 0.000000
									CHANNELS 3 Zrotation Yrotation Xrotation
									End Site
									{
										OFFSET 0.000000 0.000000 0.000000
									}
								}
							}
						}
					}
				}
			}
		}
	}
}
MOTION
Frames: 13
Frame Time: 0.016667
1.887410 16.966810 -6.459960 -170.296400 -39.363819 150.386556 -15.776881 15.082095 3.282783 11.064237 -1.895596 6.457361 -9.717890 11.938930 30.888952 0.845435 7.673180 1.902810 0.490910 0.066470 0.828300 17.484968 -9.458543 3.452099 3.922967 4.812847 -18.319431 13.636909 -7.829155 24.571070 -0.577527 -3.438011 3.110073 -0.206790 -0.623780 0.010420 -1.575969 -6.184149 -8.229855 -1.452874 -1.428402 45.258426 4.407468 1.809043 1.964847 2.505662 6.988343 -19.136252 7.327097 -15.635505 46.591729 6.115310 -10.420020 -24.841520 -18.291348 -29.168874 7.500727 -4.736151 1.291044 -13.467612 66.032923 -77.443755 -49.068807 -2.508429 1.808186 0.832660 -0.595530 0.442680 -0.060480 12.563263 26.936007 15.861614 22.773742 -17.361357 -19.399684 -57.298514 39.014052 -21.361682 2.478337 -1.420557 0.030150 -0.136990 -0.357140 -0.351320 
1.897160 17.023150 -6.402840 -170.877988 -34.734640 150.638332 -15.865769 15.085961 3.176979 10.498435 -1.547731 7.467572 -8.610834 11.274591 29.677417 0.718486 7.524452 1.952292 0.447250 0.062760 0.739790 17.458147 -9.249765 3.506027 4.391947 5.279545 -18.913472 15.785844 -9.393343 27.791237 -0.690013 -4.134548 2.862746 -0.160460 -0.533640 0.011440 -1.418821 -6.455009 -8.189870 -2.112892 -0.981281 45.332637 5.448519 1.048693 6.153465 2.224864 7.370855 -18.621374 8.655949 -17.634242 42.799191 8.366240 -11.840510 -27.809920 -16.552792 -30.157170 7.406511 -5.663033 -0.599908 -15.001109 65.392532 -75.886299 -48.632112 -2.624961 1.839310 0.817760 -0.542340 0.398590 -0.072180 11.154475 27.916150 15.716606 23.264605 -15.023692 -21.694912 -61.044259 41.479061 -25.893883 2.404624 -1.343561 -0.015950 -0.055650 -0.271430 -0.336670 
1.885430 17.153900 -6.306490 -170.428082 -25.883647 150.569559 -15.938459 15.093125 3.012722 10.325940 -0.902074 9.539261 -5.904986 9.739662 26.125842 0.526433 7.072941 2.103599 0.303890 -0.110860 0.659290 17.440144 -8.990716 3.705801 5.814684 5.740606 -18.838712 20.705630 -12.823966 31.694734 -0.986612 -5.330359 2.455111 -0.250520 -0.428640 0.052050 -1.387823 -6.711426 -8.308516 -2.194312 -1.897290 46.945436 6.004183 -0.113993 7.624911 1.296701 8.047094 -19.374841 10.143552 -20.819622 45.376180 15.384280 -15.003570 -31.886130 -15.173104 -31.775512 8.144267 -7.531830 -0.043988 -16.430469 70.498305 -79.703937 -57.197914 -2.688068 1.168403 0.914900 -0.512210 0.402170 -0.154410 11.446384 28.630532 15.516201 22.698533 -13.304040 -23.419242 -62.688460 47.700870 -30.411463 2.324163 -1.013725 -0.079310 0.035560 -0.113350 -0.347870 
1.841820 17.266200 -6.205870 -170.980431 -13.341810 153.292985 -16.002701 14.941022 2.910163 9.095900 0.059199 10.252666 -4.121638 8.413529 21.323676 0.609903 6.166999 2.354820 0.425820 0.115880 0.630180 17.453263 -8.701764 3.983507 7.932171 6.882483 -21.343040 22.871410 -16.555685 39.120455 -1.464328 -6.868351 1.937898 -0.228480 -0.526340 0.112310 -1.335046 -6.761444 -8.574278 -2.274758 -2.547978 44.660979 5.834377 -1.286423 11.032795 0.864110 7.210230 -21.912401 9.041258 -21.870167 50.940327 21.813920 -17.659290 -33.389040 -14.916948 -34.277803 10.007086 -11.165976 1.625548 -18.391520 77.971698 -81.093762 -66.579633 -2.629312 0.751222 0.855400 -0.589350 0.529800 -0.086130 12.076945 32.053875 16.531760 22.915492 -11.943783 -24.985152 -60.965661 48.362627 -30.625477 2.612355 -1.250580 0.124440 -0.082900 -0.217960 -0.232720 
1.735390 17.344550 -6.142550 -169.468264 4.418019 155.129048 -15.842592 14.453211 2.883911 10.062024 0.788864 12.767444 -4.389225 7.968404 15.111006 0.659432 5.791987 2.555063 0.330130 0.125800 0.459170 17.692761 -8.539978 4.376059 12.715035 8.741391 -20.423474 23.973478 -20.146326 46.122636 -1.869679 -8.443489 1.569465 -0.214520 -0.451800 -0.061510 -1.700558 -6.121753 -8.913721 1.574299 -4.519905 45.700946 3.677491 -2.219137 13.129869 0.920750 5.237642 -24.441325 4.963579 -21.831346 53.297131 22.631870 -21.674350 -30.922180 -13.699025 -36.805559 11.378441 -14.437810 2.815355 -20.770668 79.979978 -78.577064 -66.865841 -2.759443 1.036157 0.780010 -0.592740 0.467520 -0.031120 10.656838 36.371589 17.514558 20.597876 -9.246450 -25.046588 -53.810199 48.324682 -26.581608 2.835087 -1.411796 0.067060 0.071850 -0.205650 -0.147790 
1.582630 17.398980 -6.148070 -167.646886 18.297055 158.516157 -15.622922 14.110022 2.925788 10.100816 0.669354 13.164638 -4.365748 7.399653 11.608861 0.693456 5.529807 2.617902 0.361500 0.013590 0.613600 17.892040 -8.699421 4.514667 12.442531 8.571585 -21.836064 25.695101 -25.197283 53.164067 -2.360115 -10.253279 0.954417 -0.313700 -0.596410 0.027230 -2.069942 -5.478108 -9.011641 4.943579 -6.757626 46.738631 1.738925 -2.514022 6.759447 0.433585 5.928307 -25.054143 5.440299 -24.586903 56.908251 23.620850 -27.042640 -26.973250 -17.315586 -37.702780 11.948036 -13.818613 0.852535 -18.136420 49.293810 -82.952177 -44.992985 -2.455622 2.444248 0.808050 -0.661010 0.518680 -0.094800 14.665220 35.148926 17.140111 20.554757 -13.191982 -24.494968 -56.382621 58.357753 -31.545756 2.698565 -1.171979 0.150500 -0.119860 -0.254020 -0.195990 
1.451440 17.391860 -6.193330 -163.955959 30.052891 164.052896 -15.393239 13.663768 2.882316 11.392758 0.323298 12.403130 -5.014123 7.064490 8.806215 0.540567 5.451271 2.676582 0.241660 -0.155830 0.481330 18.086030 -8.922159 4.692806 10.000060 8.662161 -25.998444 28.134525 -30.943472 59.322211 -2.706373 -12.139487 0.465684 -0.331820 -0.480400 -0.028900 -2.656826 -4.401775 -9.004533 9.151631 -10.133940 45.354126 0.352145 -5.798756 4.833163 -0.601958 5.975843 -22.977916 5.583866 -26.282632 53.691177 23.108030 -31.619450 -21.288320 -16.250508 -36.902748 12.266247 -13.343418 0.705559 -16.480364 35.857130 -83.700494 -34.957063 -2.485764 2.826672 0.759600 -0.573900 0.357210 -0.106880 15.075715 32.732517 14.877177 15.556193 -8.817078 -22.720295 -43.261910 69.621661 -28.570216 2.181285 -0.893780 0.044620 -0.079520 -0.150980 -0.202840 
1.372620 17.406720 -6.189070 -160.212388 44.475732 171.173205 -15.459925 13.421394 2.896261 11.984877 0.363753 11.255582 -6.824886 6.858490 5.861132 0.529996 5.432683 2.685615 0.217630 -0.201890 0.476180 18.064961 -8.572794 4.949803 7.571559 10.773431 -29.387916 32.677766 -34.673848 61.041207 -2.944618 -13.106940 0.227555 -0.357430 -0.453710 0.012000 -2.641310 -4.405142 -9.131166 8.623787 -9.516412 46.353118 1.402656 -5.367643 1.040219 -0.910165 6.547423 -21.734898 7.133846 -26.939527 52.820875 21.773500 -32.109360 -18.476180 -16.920425 -35.003539 12.343120 -13.609369 3.341692 -15.003748 45.751246 -89.947015 -48.335739 -2.585376 2.500885 0.742130 -0.524800 0.338840 -0.120270 16.249442 30.875156 12.907447 12.042602 -3.560200 -19.860096 -25.729004 75.781985 -19.905681 2.144212 -1.120160 0.051360 -0.104260 -0.124160 -0.209520 
1.316730 17.425200 -6.238710 -150.510784 56.228164 -176.837295 -15.519821 13.452232 2.862125 14.023506 -0.132278 9.501490 -6.988588 6.649231 4.764547 0.541753 5.384209 2.707362 0.268880 -0.158050 0.512680 18.012629 -8.213381 5.125067 6.789759 11.654733 -33.149665 34.406424 -38.108144 63.812686 -3.211761 -14.032013 0.011063 -0.351500 -0.478520 0.059360 -2.531990 -4.956595 -9.268438 9.721908 -10.859354 47.013688 2.266468 -5.843822 -1.902547 -0.339430 6.360600 -20.752750 6.156169 -25.101445 52.449863 18.918520 -29.947290 -17.694460 -18.742189 -33.636375 12.781335 -12.001081 3.855500 -12.734558 18.027853 -88.419195 -21.681959 -2.604027 3.315685 0.723920 -0.521450 0.354800 -0.099340 16.934076 29.744724 11.258923 10.556552 0.515215 -17.688824 -14.365945 79.200681 -12.770075 2.197102 -1.312314 0.097400 -0.160060 -0.162720 -0.207420 
1.283330 17.411470 -6.369720 -129.792911 69.049150 -154.858848 -15.571921 13.244410 2.883043 14.186639 0.061873 11.194431 -7.084083 6.484885 2.718466 0.650568 5.470863 2.705182 0.328310 -0.084680 0.556230 18.009028 -7.865530 5.368599 4.318078 13.819789 -35.943940 38.275845 -41.986642 65.716729 -3.472742 -14.895711 -0.153864 -0.326640 -0.508180 0.075720 -2.559446 -5.042530 -9.442691 11.330459 -10.690673 48.242806 1.222507 -5.134287 -2.312461 0.308047 6.064353 -20.235464 5.825762 -23.068470 50.282519 14.901040 -26.319890 -16.544120 -19.691657 -32.446658 12.968713 -12.201646 8.406457 -12.864928 -154.095447 -88.242588 148.893932 -2.613650 3.281967 0.691830 -0.510720 0.364540 -0.065230 16.510389 29.590400 11.082871 11.741355 -0.925915 -18.698935 -19.413081 84.724245 -19.344544 2.151052 -1.287020 0.131270 -0.202920 -0.228150 -0.209970 
1.314560 17.395240 -6.501740 -86.809706 73.764578 -109.922103 -15.463125 13.141038 2.885986 14.625996 -0.049544 11.353309 -7.708570 6.458359 1.720040 0.659788 5.598997 2.675628 0.338550 -0.065840 0.533210 18.141176 -7.614621 5.459218 2.310198 14.397666 -38.312660 44.656623 -44.281374 62.205107 -3.465426 -14.825371 -0.129119 -0.293460 -0.449430 0.091580 -2.654452 -4.425405 -9.602145 14.432836 -10.764167 46.828139 -0.796567 -4.374940 -0.153892 0.467327 6.032371 -19.777541 6.185566 -21.250144 47.552194 12.936650 -23.416900 -15.100030 -19.411710 -31.292305 13.454356 -10.956647 2.556596 -7.168676 94.759046 -85.931792 -100.479215 -3.465193 0.309321 0.643310 -0.456780 0.316480 -0.043270 15.711353 29.008371 10.781409 13.632370 -2.146724 -20.157767 -26.965297 87.513569 -27.849688 2.051577 -1.148279 0.121770 -0.198300 -0.218740 -0.199890 
1.413340 17.353900 -6.591900 -47.050248 68.494813 -68.136938 -15.662539 12.931914 2.943901 15.239127 -0.257380 12.275652 -9.099436 6.411022 -0.207665 0.792304 5.796961 2.671164 0.429770 0.099420 0.514090 18.007573 -7.271753 5.528683 0.378256 14.509769 -42.009720 49.770277 -47.513837 60.976744 -3.587352 -15.103688 -0.101063 -0.199060 -0.367580 0.085200 -2.811340 -4.608626 -9.721655 13.718817 -10.723242 45.423653 -0.264362 -5.367923 1.063325 1.268577 5.034793 -17.876978 4.160002 -17.486149 45.523798 9.651130 -18.830220 -14.265620 -20.362783 -31.855412 10.199320 -10.344732 4.143828 -13.856054 -115.741084 -87.493519 113.251930 -2.770639 1.692876 0.549540 -0.394110 0.294930 0.075350 15.868990 29.513979 11.500177 12.870795 -1.661810 -18.782775 -14.993338 86.764003 -18.161432 2.087530 -1.528151 0.144900 -0.138420 -0.297420 -0.134470 
1.529300 17.329630 -6.663140 -30.456517 58.372890 -48.848254 -15.705416 12.733075 2.842667 15.437958 -0.314825 11.814411 -9.134503 6.299421 -0.579138 0.726785 5.817495 2.690540 0.423210 0.092490 0.497840 18.009353 -7.140509 5.693370 -3.548289 13.682476 -46.516796 58.964893 -51.045144 56.325665 -3.566250 -14.850123 -0.004956 -0.171170 -0.303540 0.082380 -3.032968 -4.544267 -9.834834 14.820597 -11.156082 43.542321 -1.198620 -5.613172 0.883981 2.019833 4.270277 -16.982675 2.792289 -14.025299 45.111773 6.634690 -14.682450 -13.323000 -21.733010 -29.931683 10.936141 -8.549371 1.636558 -10.012258 -8.426668 -89.722309 2.866234 -2.849253 3.702297 0.551990 -0.342250 0.258340 0.095490 16.147258 27.677740 10.549369 12.933298 -0.310689 -16.986681 -6.214310 87.864788 -10.643396 2.087762 -1.625637 0.092570 -0.087580 -0.274680 -0.149050 
